<svg xmlns="http://www.w3.org/2000/svg" xmlns:xlink="http://www.w3.org/1999/xlink" viewBox="0 0 100.5 100.35"><defs><style>.cls-1{fill:url(#linear-gradient);}.cls-2{fill:#fff;}</style><linearGradient id="linear-gradient" x1="6.61" y1="50.17" x2="93.88" y2="50.17" gradientUnits="userSpaceOnUse"><stop offset="0" stop-color="#f04c30"/><stop offset="0.36" stop-color="#ed4a30"/><stop offset="0.67" stop-color="#e2452e"/><stop offset="0.96" stop-color="#d03c2c"/><stop offset="1" stop-color="#cd3a2c"/></linearGradient></defs><title>Asset 4</title><g id="Layer_2" data-name="Layer 2"><g id="Layer_1-2" data-name="Layer 1"><path class="cls-1" d="M73.66,8.82A8.57,8.57,0,0,0,67.2,6.54H33.3a8.6,8.6,0,0,0-6.47,2.28L9.58,26.3a9.88,9.88,0,0,0-3,7.3V67.12A8.64,8.64,0,0,0,9.43,74l17,17A9.25,9.25,0,0,0,33.3,93.8H67.2a9.27,9.27,0,0,0,6.92-2.88L91.07,74a8.8,8.8,0,0,0,2.81-6.84V55.57a1.45,1.45,0,0,0-1.59-1.52h-5.1v3.57c0,2.66-.38,4-2.66,4H82.25c-2.28,0-2.66-1.37-2.66-4V54.05H76c-2.66,0-4-.38-4-2.66V49c0-2.28,1.37-2.66,4-2.66h3.57V42.72c0-2.66.38-4,2.66-4h2.28c2.28,0,2.66,1.37,2.66,4v3.57h5.1c1.06,0,1.59-.6,1.59-1.74V33.6a10.19,10.19,0,0,0-3-7.3Z"/><path class="cls-2" d="M49.54,26.23c-14.82,0-15.28,7.14-15.28,26.52,0,15.13,1.67,22,15.28,22,14.29,0,15.28-7.6,15.28-24.47S63.83,26.23,49.54,26.23Zm7.3,29.41c0,7.83-.3,11.1-7.3,11.1s-7.3-3.19-7.3-10.94V45.31c0-7.83.31-11.1,7.3-11.1s7.3,3.19,7.3,10.94Z"/><path class="cls-2" d="M78.3,4.41A15.43,15.43,0,0,0,67.12,0H33.37A15.3,15.3,0,0,0,22.2,4.41L4.33,22.2A14.8,14.8,0,0,0,0,32.84V67.12A15.17,15.17,0,0,0,4.79,78.6l17,17a15.36,15.36,0,0,0,11.86,4.79H66.9a15.7,15.7,0,0,0,11.85-4.79l17-17a15.57,15.57,0,0,0,4.79-11.48V32.84A14.81,14.81,0,0,0,96.16,22.2ZM93.88,44.55c0,1.14-.53,1.74-1.59,1.74h-5.1V42.72c0-2.66-.38-4-2.66-4H82.25c-2.28,0-2.66,1.37-2.66,4v3.57H76c-2.66,0-4,.38-4,2.66v2.44c0,2.28,1.37,2.66,4,2.66h3.57v3.57c0,2.66.38,4,2.66,4h2.28c2.28,0,2.66-1.37,2.66-4V54.05h5.1a1.45,1.45,0,0,1,1.59,1.52V67.12A8.8,8.8,0,0,1,91.07,74l-16.95,17A9.27,9.27,0,0,1,67.2,93.8H33.3a9.25,9.25,0,0,1-6.92-2.88L9.43,74a8.64,8.64,0,0,1-2.82-6.84V33.6a9.88,9.88,0,0,1,3-7.3L26.83,8.82A8.6,8.6,0,0,1,33.3,6.54H67.2a8.57,8.57,0,0,1,6.46,2.28L90.92,26.3a10.19,10.19,0,0,1,3,7.3Z"/></g></g></svg>