<svg xmlns="http://www.w3.org/2000/svg" xmlns:xlink="http://www.w3.org/1999/xlink" viewBox="0 0 100.5 100.35"><defs><style>.cls-1{fill:url(#linear-gradient);}.cls-2{fill:#fff;}</style><linearGradient id="linear-gradient" x1="6.61" y1="50.17" x2="93.88" y2="50.17" gradientUnits="userSpaceOnUse"><stop offset="0" stop-color="#f04c30"/><stop offset="0.36" stop-color="#ed4a30"/><stop offset="0.67" stop-color="#e2452e"/><stop offset="0.96" stop-color="#d03c2c"/><stop offset="1" stop-color="#cd3a2c"/></linearGradient></defs><title>Asset 5</title><g id="Layer_2" data-name="Layer 2"><g id="Layer_1-2" data-name="Layer 1"><path class="cls-1" d="M73.66,8.82A8.57,8.57,0,0,0,67.2,6.54H33.29a8.59,8.59,0,0,0-6.46,2.28L9.58,26.3a9.88,9.88,0,0,0-3,7.3V67.13A8.63,8.63,0,0,0,9.43,74l17,17a9.26,9.26,0,0,0,6.91,2.89H67.2a9.28,9.28,0,0,0,6.92-2.89L91.07,74a8.79,8.79,0,0,0,2.81-6.83V55.57a1.46,1.46,0,0,0-1.59-1.52h-5.1v3.57c0,2.66-.38,4-2.66,4H82.25c-2.28,0-2.66-1.37-2.66-4V54.05H76c-2.66,0-4-.38-4-2.66V49c0-2.29,1.37-2.67,4-2.67h3.57V42.72c0-2.66.38-4,2.66-4h2.28c2.28,0,2.66,1.37,2.66,4v3.57h5.1c1.06,0,1.59-.6,1.59-1.74V33.6a10.19,10.19,0,0,0-3-7.3Z"/><path class="cls-2" d="M32,27.21H25c-2.66,0-4,.46-4,2.67v2.5C21,34.59,22.37,35,25,35h1.6c1,0,1.44.54,1.44,2.06V69.94c0,2.66.46,4,2.67,4h2.58c2.21,0,2.66-1.36,2.66-4V29.88C36,27.67,34.61,27.21,32,27.21Z"/><path class="cls-2" d="M78.3,4.41A15.43,15.43,0,0,0,67.12,0H33.37A15.3,15.3,0,0,0,22.2,4.41L4.33,22.2A14.82,14.82,0,0,0,0,32.84V67.13A15.13,15.13,0,0,0,4.79,78.6l17,17a15.36,15.36,0,0,0,11.86,4.79H66.9a15.7,15.7,0,0,0,11.85-4.79l17-17a15.55,15.55,0,0,0,4.79-11.47V32.84A14.83,14.83,0,0,0,96.16,22.2ZM93.88,44.55c0,1.14-.53,1.74-1.59,1.74h-5.1V42.72c0-2.66-.38-4-2.66-4H82.25c-2.28,0-2.66,1.37-2.66,4v3.57H76c-2.66,0-4,.38-4,2.67v2.43c0,2.28,1.37,2.66,4,2.66h3.57v3.57c0,2.66.38,4,2.66,4h2.28c2.28,0,2.66-1.37,2.66-4V54.05h5.1a1.46,1.46,0,0,1,1.59,1.52V67.13A8.79,8.79,0,0,1,91.07,74l-16.95,17a9.28,9.28,0,0,1-6.92,2.89H33.29a9.26,9.26,0,0,1-6.91-2.89L9.43,74a8.63,8.63,0,0,1-2.82-6.83V33.6a9.88,9.88,0,0,1,3-7.3L26.83,8.82a8.59,8.59,0,0,1,6.46-2.28H67.2a8.57,8.57,0,0,1,6.46,2.28L90.92,26.3a10.19,10.19,0,0,1,3,7.3Z"/><path class="cls-2" d="M68.56,41.5c0-10.41-1-15.35-13.76-15.35C45.91,26.15,42,28.2,42,37.4c0,2.05.83,2.58,3,2.58h1.82c1.75,0,2.82-.3,2.82-1.82,0-3.8,1.44-4.18,5.16-4.18,3.88,0,5.78.38,5.78,5.77,0,8.29-6.08,8.52-11.7,10.88-6.46,2.73-7.45,7.67-7.45,14.82V70c0,3.34,1.44,3.88,4.25,3.88H64.16c2.81,0,4.25-.46,4.25-3V68.64c0-2.35-1.44-2.81-4.25-2.81H50.7c-1.06,0-1.37-.53-1.37-1.75V61.57C49.33,53.44,68.56,58.53,68.56,41.5Z"/></g></g></svg>