<svg xmlns="http://www.w3.org/2000/svg" xmlns:xlink="http://www.w3.org/1999/xlink" viewBox="0 0 100.5 100.35"><defs><style>.cls-1{fill:url(#linear-gradient);}.cls-2{fill:#fff;}</style><linearGradient id="linear-gradient" x1="6.61" y1="50.17" x2="93.88" y2="50.17" gradientUnits="userSpaceOnUse"><stop offset="0" stop-color="#f04c30"/><stop offset="0.36" stop-color="#ed4a30"/><stop offset="0.67" stop-color="#e2452e"/><stop offset="0.96" stop-color="#d03c2c"/><stop offset="1" stop-color="#cd3a2c"/></linearGradient></defs><title>Asset 6</title><g id="Layer_2" data-name="Layer 2"><g id="Layer_1-2" data-name="Layer 1"><path class="cls-1" d="M92.29,46.29c1.06,0,1.59-.6,1.59-1.74V33.6a10.19,10.19,0,0,0-3-7.3L73.66,8.82A8.57,8.57,0,0,0,67.2,6.54H33.29a8.59,8.59,0,0,0-6.46,2.28L9.58,26.3a9.88,9.88,0,0,0-3,7.3V67.12A8.64,8.64,0,0,0,9.43,74l17,17a9.26,9.26,0,0,0,6.91,2.89H67.2a9.28,9.28,0,0,0,6.92-2.89L91.07,74a8.8,8.8,0,0,0,2.81-6.84V55.57a1.45,1.45,0,0,0-1.59-1.52h-5.1v3.57c0,2.66-.38,4-2.66,4H82.25c-2.28,0-2.66-1.37-2.66-4V54.05H76c-2.66,0-4-.38-4-2.66V49c0-2.29,1.37-2.67,4-2.67h3.57V42.72c0-2.66.38-4,2.66-4h2.28c2.28,0,2.66,1.37,2.66,4v3.57Z"/><path class="cls-2" d="M78.3,4.41A15.43,15.43,0,0,0,67.12,0H33.37A15.28,15.28,0,0,0,22.2,4.41L4.33,22.2A14.82,14.82,0,0,0,0,32.84V67.12A15.14,15.14,0,0,0,4.79,78.6l17,17a15.34,15.34,0,0,0,11.86,4.79H66.9a15.7,15.7,0,0,0,11.85-4.79l17-17a15.56,15.56,0,0,0,4.79-11.48V32.84A14.83,14.83,0,0,0,96.16,22.2ZM93.88,44.55c0,1.14-.53,1.74-1.59,1.74h-5.1V42.72c0-2.66-.38-4-2.66-4H82.25c-2.28,0-2.66,1.37-2.66,4v3.57H76c-2.66,0-4,.38-4,2.67v2.43c0,2.28,1.37,2.66,4,2.66h3.57v3.57c0,2.66.38,4,2.66,4h2.28c2.28,0,2.66-1.37,2.66-4V54.05h5.1a1.45,1.45,0,0,1,1.59,1.52V67.12A8.8,8.8,0,0,1,91.07,74l-16.95,17a9.28,9.28,0,0,1-6.92,2.89H33.29a9.26,9.26,0,0,1-6.91-2.89L9.43,74a8.64,8.64,0,0,1-2.82-6.84V33.6a9.88,9.88,0,0,1,3-7.3L26.83,8.82a8.59,8.59,0,0,1,6.46-2.28H67.2a8.57,8.57,0,0,1,6.46,2.28L90.92,26.3a10.19,10.19,0,0,1,3,7.3Z"/><path class="cls-2" d="M54.91,46a30.32,30.32,0,0,0-5.78.53c-.76.15-1.36-.15-1.36-1.06V43.94c0-7.15.53-9.73,6.53-9.73,5.17,0,6.31.3,6.31,4,0,1.52,1.07,2,2.82,2h1.82c2.13,0,3-.53,3-2.58,0-9-3.87-11.25-12.77-11.25-13.91,0-15.5,5.62-15.5,23.41C40,67,39,74.57,54.61,74.57c9.88,0,14.29-3.26,14.29-15.81C68.9,48.42,64.11,46,54.91,46Zm-.15,21c-5.4,0-7-1.52-7-6V53.75a25.89,25.89,0,0,1,6.15-.92c5.86,0,7.15,1.52,7.15,6.84C61.07,64.54,60.39,67,54.76,67Z"/><path class="cls-2" d="M30.38,27.22H23.46c-2.66,0-4,.45-4,2.66v2.5c0,2.21,1.37,2.66,4,2.66h1.59c1,0,1.45.54,1.45,2.06V69.94c0,2.66.45,4,2.66,4h2.58c2.21,0,2.67-1.37,2.67-4V29.88C34.41,27.67,33,27.22,30.38,27.22Z"/></g></g></svg>