<svg xmlns="http://www.w3.org/2000/svg" xmlns:xlink="http://www.w3.org/1999/xlink" viewBox="0 0 100.5 100.35"><defs><style>.cls-1{fill:url(#linear-gradient);}.cls-2{fill:url(#linear-gradient-2);}.cls-3{fill:url(#linear-gradient-3);}.cls-4{fill:#fff;}</style><linearGradient id="linear-gradient" x1="49.11" y1="39.99" x2="60.81" y2="39.99" gradientUnits="userSpaceOnUse"><stop offset="0" stop-color="#f04c30"/><stop offset="0.36" stop-color="#ed4a30"/><stop offset="0.67" stop-color="#e2452e"/><stop offset="0.96" stop-color="#d03c2c"/><stop offset="1" stop-color="#cd3a2c"/></linearGradient><linearGradient id="linear-gradient-2" x1="48.35" y1="60.51" x2="61.57" y2="60.51" xlink:href="#linear-gradient"/><linearGradient id="linear-gradient-3" x1="6.61" y1="50.17" x2="93.88" y2="50.17" xlink:href="#linear-gradient"/></defs><title>Asset 7</title><g id="Layer_2" data-name="Layer 2"><g id="Layer_1-2" data-name="Layer 1"><path class="cls-1" d="M55,46.6c4.18,0,5.85-1.67,5.85-6.61,0-5.1-1.67-6.62-5.85-6.62S49.11,34.89,49.11,40C49.11,44.93,50.78,46.6,55,46.6Z"/><path class="cls-2" d="M55,53.67c-4.86,0-6.61,2.2-6.61,7S50.1,67.35,55,67.35s6.61-1.9,6.61-6.69S59.83,53.67,55,53.67Z"/><path class="cls-3" d="M73.66,8.82A8.57,8.57,0,0,0,67.2,6.54H33.29a8.59,8.59,0,0,0-6.46,2.28L9.58,26.3a9.88,9.88,0,0,0-3,7.3V67.13A8.63,8.63,0,0,0,9.43,74l17,17a9.27,9.27,0,0,0,6.91,2.89H67.2a9.28,9.28,0,0,0,6.92-2.89L91.07,74a8.79,8.79,0,0,0,2.81-6.83V55.57a1.45,1.45,0,0,0-1.59-1.52h-5.1v3.57c0,2.66-.38,4-2.66,4H82.25c-2.28,0-2.66-1.37-2.66-4V54.05H76c-2.66,0-4-.38-4-2.66V49c0-2.29,1.37-2.67,4-2.67h3.57V42.72c0-2.66.38-4,2.66-4h2.28c2.28,0,2.66,1.37,2.66,4v3.57h5.1c1.06,0,1.59-.6,1.59-1.74V33.6a10.19,10.19,0,0,0-3-7.3ZM55,74.57c-11.48-.22-14.44-4.4-14.44-12.84,0-5.7.38-10,5.47-12-4.26-3.12-4.33-6.31-4.33-8.9V38.24C42.12,29.65,45,26.38,55,26.38s12.85,3.27,13.3,11.86v2.58c0,2.59-.07,5.78-4.33,8.9,5.1,2,5.47,6.31,5.47,12C69.4,70.17,66.44,74.35,55,74.57Z"/><path class="cls-4" d="M30.87,27.21H24c-2.66,0-4,.46-4,2.67v2.5c0,2.21,1.37,2.66,4,2.66h1.59c1,0,1.45.54,1.45,2.06V69.94c0,2.66.46,4,2.66,4h2.58c2.21,0,2.66-1.36,2.66-4V29.88C34.9,27.67,33.54,27.21,30.87,27.21Z"/><path class="cls-4" d="M78.3,4.41A15.43,15.43,0,0,0,67.12,0H33.37A15.3,15.3,0,0,0,22.2,4.41L4.33,22.2A14.82,14.82,0,0,0,0,32.84V67.13A15.13,15.13,0,0,0,4.79,78.6l17,17a15.36,15.36,0,0,0,11.86,4.79H66.9a15.7,15.7,0,0,0,11.85-4.79l17-17a15.55,15.55,0,0,0,4.79-11.47V32.84A14.83,14.83,0,0,0,96.16,22.2ZM93.88,44.55c0,1.14-.53,1.74-1.59,1.74h-5.1V42.72c0-2.66-.38-4-2.66-4H82.25c-2.28,0-2.66,1.37-2.66,4v3.57H76c-2.66,0-4,.38-4,2.67v2.43c0,2.28,1.37,2.66,4,2.66h3.57v3.57c0,2.66.38,4,2.66,4h2.28c2.28,0,2.66-1.37,2.66-4V54.05h5.1a1.45,1.45,0,0,1,1.59,1.52V67.13A8.79,8.79,0,0,1,91.07,74l-16.95,17a9.28,9.28,0,0,1-6.92,2.89H33.29a9.27,9.27,0,0,1-6.91-2.89L9.43,74a8.63,8.63,0,0,1-2.82-6.83V33.6a9.88,9.88,0,0,1,3-7.3L26.83,8.82a8.59,8.59,0,0,1,6.46-2.28H67.2a8.57,8.57,0,0,1,6.46,2.28L90.92,26.3a10.19,10.19,0,0,1,3,7.3Z"/><path class="cls-4" d="M63.93,49.72c4.26-3.12,4.33-6.31,4.33-8.9V38.24c-.45-8.59-3.34-11.86-13.3-11.86s-12.84,3.27-13.3,11.86v2.58c0,2.59.07,5.78,4.33,8.9-5.09,2-5.47,6.31-5.47,12,0,8.44,3,12.62,14.44,12.84,11.48-.22,14.44-4.4,14.44-12.84C69.4,56,69,51.69,63.93,49.72ZM55,33.37c4.18,0,5.85,1.52,5.85,6.62,0,4.94-1.67,6.61-5.85,6.61S49.11,44.93,49.11,40C49.11,34.89,50.78,33.37,55,33.37Zm0,34c-4.86,0-6.61-1.9-6.61-6.69s1.75-7,6.61-7,6.61,2.2,6.61,7S59.83,67.35,55,67.35Z"/></g></g></svg>