<svg xmlns="http://www.w3.org/2000/svg" xmlns:xlink="http://www.w3.org/1999/xlink" viewBox="0 0 100 100"><defs><style>.cls-1{fill:url(#linear-gradient);}.cls-2{fill:url(#linear-gradient-2);}.cls-3{fill:#fff;}</style><linearGradient id="linear-gradient" x1="6" y1="49.5" x2="93" y2="49.5" gradientUnits="userSpaceOnUse"><stop offset="0" stop-color="#f04c30"/><stop offset="0.36" stop-color="#ed4a30"/><stop offset="0.67" stop-color="#e2452e"/><stop offset="0.96" stop-color="#d03c2c"/><stop offset="1" stop-color="#cd3a2c"/></linearGradient><linearGradient id="linear-gradient-2" x1="43" y1="59.43" x2="56.3" y2="59.43" xlink:href="#linear-gradient"/></defs><title>Asset 3</title><g id="Layer_2" data-name="Layer 2"><g id="Layer_1-2" data-name="Layer 1"><path class="cls-1" d="M72.84,8.29A8.5,8.5,0,0,0,66.4,6H32.6a8.5,8.5,0,0,0-6.44,2.29L9,25.89a10,10,0,0,0-3,7.34V66.15A8.72,8.72,0,0,0,8.8,73l16.9,17A9.18,9.18,0,0,0,32.6,93H66.4a9.18,9.18,0,0,0,6.9-2.91L90.2,73A8.88,8.88,0,0,0,93,66.15V54.53A1.46,1.46,0,0,0,91.41,53H87v3.76c0,2.8-.35,4.24-2.45,4.24h-2.1C80.35,61,80,59.56,80,56.76V54H76.24c-2.8,0-4.24-.39-4.24-2.74V48.74C72,46.39,73.44,46,76.24,46H79V42.24c0-2.8.4-4.24,2.8-4.24h2.4c2.4,0,2.8,1.44,2.8,4.24V46h4.41c1.06,0,1.59-.61,1.59-1.76v-11a10.26,10.26,0,0,0-3-7.34Zm-23,66.07c-15.58,0-14.59-7.6-14.67-24.78,0-17.79,1.6-23.42,15.51-23.42,8.89,0,12.77,2.29,12.77,11.26,0,2-.84,2.58-3,2.58H58.66c-1.75,0-2.81-.46-2.81-2,0-3.72-1.14-4-6.31-4-6,0-6.54,2.58-6.54,9.72v1.53c0,.91.61,1.21,1.37,1.06a30.22,30.22,0,0,1,5.77-.53c9.2,0,14,2.43,14,12.77C64.13,71.09,59.72,74.36,49.84,74.36Z"/><path class="cls-2" d="M49.16,52.36a25.9,25.9,0,0,0-6.16.91v7.22c0,4.49,1.6,6,7,6,5.63,0,6.31-2.44,6.31-7.3C56.3,53.88,55,52.36,49.16,52.36Z"/><path class="cls-3" d="M77.91,4.39A15.32,15.32,0,0,0,66.79,0H33.21A15.19,15.19,0,0,0,22.09,4.39L4.31,22.12A14.77,14.77,0,0,0,0,32.73V66.89A15.08,15.08,0,0,0,4.77,78.33l16.86,16.9A15.33,15.33,0,0,0,33.43,100H66.57a15.63,15.63,0,0,0,11.8-4.77l16.86-16.9A15.47,15.47,0,0,0,100,66.89V32.73a14.77,14.77,0,0,0-4.31-10.61ZM93,44.24c0,1.15-.53,1.76-1.59,1.76H87V42.24c0-2.8-.35-4.24-2.45-4.24h-2.1C80.35,38,80,39.44,80,42.24V46H76.24c-2.8,0-4.24.34-4.24,2.4v2.2c0,2.06,1.44,2.4,4.24,2.4H79v3.76c0,2.8.4,4.24,2.8,4.24h2.4c2.4,0,2.8-1.44,2.8-4.24V53h4.41A1.46,1.46,0,0,1,93,54.53V66.15A8.88,8.88,0,0,1,90.2,73l-16.9,17A9.18,9.18,0,0,1,66.4,93H32.6a9.18,9.18,0,0,1-6.9-2.91L8.8,73A8.72,8.72,0,0,1,6,66.15V33.23a10,10,0,0,1,3-7.34l17.2-17.6A8.5,8.5,0,0,1,32.6,6H66.4a8.5,8.5,0,0,1,6.44,2.29l17.21,17.6a10.26,10.26,0,0,1,3,7.34Z"/><path class="cls-3" d="M50.14,45.78a30.22,30.22,0,0,0-5.77.53c-.76.15-1.37-.15-1.37-1.06V43.72c0-7.14.53-9.72,6.54-9.72,5.17,0,6.31.3,6.31,4,0,1.52,1.06,2,2.81,2h1.82c2.13,0,3-.53,3-2.58,0-9-3.88-11.26-12.77-11.26-13.91,0-15.51,5.63-15.51,23.42.08,17.18-.91,24.78,14.67,24.78,9.88,0,14.29-3.27,14.29-15.81C64.13,48.21,59.34,45.78,50.14,45.78ZM50,66.5c-5.39,0-7-1.52-7-6V53.27a25.9,25.9,0,0,1,6.16-.91c5.85,0,7.14,1.52,7.14,6.84C56.3,64.06,55.62,66.5,50,66.5Z"/></g></g></svg>